<mxfile host="app.diagrams.net" modified="2021-03-03T19:56:41.404Z" agent="5.0 (Windows NT 10.0; Win64; x64) AppleWebKit/537.36 (KHTML, like Gecko) Chrome/88.0.4324.190 Safari/537.36" etag="JGB8RartBRpNGEm3glT5" version="14.4.3" type="github">
  <diagram id="oZFeqEb4DuBPikCs4jgm" name="Page-1">
    <mxGraphModel dx="3206" dy="2688" grid="1" gridSize="10" guides="1" tooltips="1" connect="1" arrows="1" fold="1" page="1" pageScale="1" pageWidth="1169" pageHeight="826" math="0" shadow="0">
      <root>
        <mxCell id="0" />
        <mxCell id="1" parent="0" />
        <mxCell id="HutICp3ffsg-i04zgrZf-104" value="" style="rounded=1;whiteSpace=wrap;html=1;shadow=0;glass=1;labelBackgroundColor=none;sketch=0;strokeColor=#3B3B3B;strokeWidth=3;fontSize=31;fontColor=#000000;opacity=20;align=left;fillColor=#FFC986;" vertex="1" parent="1">
          <mxGeometry x="-900" y="-360" width="1650" height="140" as="geometry" />
        </mxCell>
        <mxCell id="HutICp3ffsg-i04zgrZf-103" value="" style="rounded=1;whiteSpace=wrap;html=1;shadow=0;glass=1;labelBackgroundColor=none;sketch=0;strokeColor=#3B3B3B;strokeWidth=3;fontSize=31;fontColor=#000000;opacity=20;align=left;fillColor=#7FAED1;" vertex="1" parent="1">
          <mxGeometry x="-900" y="-60" width="1650" height="140" as="geometry" />
        </mxCell>
        <mxCell id="DUvPz9e66lcGzT_nXJd--3" value="" style="rounded=1;whiteSpace=wrap;html=1;strokeWidth=2;fillWeight=4;hachureGap=8;hachureAngle=45;sketch=1;fillColor=#7AB5E2;align=left;" parent="1" vertex="1">
          <mxGeometry x="-320" y="-610" width="430" height="1240" as="geometry" />
        </mxCell>
        <mxCell id="DUvPz9e66lcGzT_nXJd--4" value="" style="rounded=1;whiteSpace=wrap;html=1;strokeWidth=2;fillWeight=4;hachureGap=8;hachureAngle=45;sketch=1;fillColor=#7AB5E2;" parent="1" vertex="1">
          <mxGeometry x="150" y="-610" width="450" height="1240" as="geometry" />
        </mxCell>
        <mxCell id="HutICp3ffsg-i04zgrZf-2" value="Text" style="text;html=1;strokeColor=none;fillColor=none;align=center;verticalAlign=middle;whiteSpace=wrap;rounded=0;" vertex="1" parent="1">
          <mxGeometry x="290" y="-230" width="40" height="20" as="geometry" />
        </mxCell>
        <mxCell id="HutICp3ffsg-i04zgrZf-4" value="SQUAD 1" style="text;html=1;strokeColor=none;fillColor=none;align=center;verticalAlign=middle;whiteSpace=wrap;rounded=0;fontStyle=1;fontSize=31;" vertex="1" parent="1">
          <mxGeometry x="-185" y="-580" width="160" height="20" as="geometry" />
        </mxCell>
        <mxCell id="HutICp3ffsg-i04zgrZf-5" value="SQUAD 2" style="text;html=1;strokeColor=none;fillColor=none;align=center;verticalAlign=middle;whiteSpace=wrap;rounded=0;fontStyle=1;fontSize=31;" vertex="1" parent="1">
          <mxGeometry x="290" y="-580" width="160" height="20" as="geometry" />
        </mxCell>
        <mxCell id="HutICp3ffsg-i04zgrZf-6" value="Agile Coach" style="pointerEvents=1;shadow=0;dashed=0;html=1;strokeColor=none;fillColor=#505050;labelPosition=center;verticalLabelPosition=bottom;verticalAlign=top;outlineConnect=0;align=center;shape=mxgraph.office.users.user;fontSize=21;fontColor=#000000;" vertex="1" parent="1">
          <mxGeometry x="110" y="-730" width="40" height="40" as="geometry" />
        </mxCell>
        <mxCell id="HutICp3ffsg-i04zgrZf-7" value="Tribe Lead" style="pointerEvents=1;shadow=0;dashed=0;html=1;strokeColor=none;fillColor=#505050;labelPosition=center;verticalLabelPosition=bottom;verticalAlign=top;outlineConnect=0;align=center;shape=mxgraph.office.users.user;fontSize=21;fontColor=#000000;" vertex="1" parent="1">
          <mxGeometry x="-380" y="-800" width="40" height="40" as="geometry" />
        </mxCell>
        <mxCell id="HutICp3ffsg-i04zgrZf-19" value="" style="shape=mxgraph.infographic.parallelogram;dx=5;html=1;fillColor=#10739E;strokeColor=none;shadow=0;fontSize=17;align=center;fontStyle=1;sketch=1;opacity=50;" vertex="1" parent="1">
          <mxGeometry x="-620" y="-480" width="140" height="90" as="geometry" />
        </mxCell>
        <mxCell id="HutICp3ffsg-i04zgrZf-20" value="BACKEND" style="shape=mxgraph.infographic.parallelogram;dx=5;;html=1;fillColor=#64BBE2;strokeColor=none;shadow=0;fontSize=17;fontColor=#FFFFFF;align=left;spacingLeft=10;fontStyle=1;" vertex="1" parent="1">
          <mxGeometry x="-460" y="-480" width="1180" height="90" as="geometry" />
        </mxCell>
        <mxCell id="HutICp3ffsg-i04zgrZf-21" value="" style="shape=mxgraph.infographic.parallelogram;dx=5;html=1;fillColor=#F2931E;strokeColor=none;shadow=0;fontSize=17;align=center;fontStyle=1;sketch=1;opacity=50;" vertex="1" parent="1">
          <mxGeometry x="-620" y="-340" width="140" height="100" as="geometry" />
        </mxCell>
        <mxCell id="HutICp3ffsg-i04zgrZf-22" value="API GW" style="shape=mxgraph.infographic.parallelogram;dx=5;;html=1;strokeColor=none;shadow=0;fontSize=17;fontColor=#FFFFFF;align=left;spacingLeft=10;fontStyle=1;fillColor=#F8C382;" vertex="1" parent="1">
          <mxGeometry x="-460" y="-340" width="1180" height="100" as="geometry" />
        </mxCell>
        <mxCell id="HutICp3ffsg-i04zgrZf-23" value="" style="shape=mxgraph.infographic.parallelogram;dx=5;html=1;fillColor=#AE4132;strokeColor=none;shadow=0;fontSize=17;align=center;fontStyle=1;sketch=1;opacity=50;" vertex="1" parent="1">
          <mxGeometry x="-620" y="-190" width="140" height="100" as="geometry" />
        </mxCell>
        <mxCell id="HutICp3ffsg-i04zgrZf-24" value="FRONTEND" style="shape=mxgraph.infographic.parallelogram;dx=5;;html=1;fillColor=#F08E81;strokeColor=none;shadow=0;fontSize=17;fontColor=#FFFFFF;align=left;spacingLeft=10;fontStyle=1;" vertex="1" parent="1">
          <mxGeometry x="-460" y="-190" width="1180" height="100" as="geometry" />
        </mxCell>
        <mxCell id="HutICp3ffsg-i04zgrZf-25" value="" style="shape=mxgraph.infographic.parallelogram;dx=5;html=1;fillColor=#23445D;strokeColor=none;shadow=0;fontSize=17;fontColor=#FFFFFF;align=center;fontStyle=1;sketch=1;opacity=50;" vertex="1" parent="1">
          <mxGeometry x="-620" y="-40" width="140" height="100" as="geometry" />
        </mxCell>
        <mxCell id="HutICp3ffsg-i04zgrZf-26" value="DEVOPS" style="shape=mxgraph.infographic.parallelogram;dx=5;;html=1;fillColor=#5D7F99;strokeColor=none;shadow=0;fontSize=17;fontColor=#FFFFFF;align=left;spacingLeft=10;fontStyle=1;" vertex="1" parent="1">
          <mxGeometry x="-452.5" y="-40" width="1172.5" height="100" as="geometry" />
        </mxCell>
        <mxCell id="HutICp3ffsg-i04zgrZf-27" value="" style="shape=mxgraph.infographic.parallelogram;dx=5;html=1;fillColor=#12AAB5;strokeColor=none;shadow=0;fontSize=17;fontColor=#FFFFFF;align=center;fontStyle=1;sketch=1;opacity=50;" vertex="1" parent="1">
          <mxGeometry x="-620" y="100" width="140" height="100" as="geometry" />
        </mxCell>
        <mxCell id="HutICp3ffsg-i04zgrZf-28" value="QUALITY ASSURANCE" style="shape=mxgraph.infographic.parallelogram;dx=5;;html=1;fillColor=#61C6CE;strokeColor=none;shadow=0;fontSize=17;fontColor=#FFFFFF;align=left;spacingLeft=10;fontStyle=1;" vertex="1" parent="1">
          <mxGeometry x="-452.5" y="100" width="1172.5" height="100" as="geometry" />
        </mxCell>
        <mxCell id="HutICp3ffsg-i04zgrZf-30" value="Carlos" style="pointerEvents=1;shadow=0;dashed=0;html=1;strokeColor=none;fillColor=#505050;labelPosition=center;verticalLabelPosition=bottom;verticalAlign=top;outlineConnect=0;align=center;shape=mxgraph.office.users.user;fontSize=21;fontColor=#000000;sketch=1;" vertex="1" parent="1">
          <mxGeometry x="-120" y="-470" width="40" height="40" as="geometry" />
        </mxCell>
        <mxCell id="HutICp3ffsg-i04zgrZf-36" value="" style="html=1;verticalLabelPosition=bottom;labelBackgroundColor=#ffffff;verticalAlign=top;shadow=0;dashed=0;strokeWidth=2;shape=mxgraph.ios7.misc.star;strokeColor=none;fontSize=21;fontColor=#FFD966;fillColor=#B39847;" vertex="1" parent="1">
          <mxGeometry x="-80" y="-480" width="22" height="22" as="geometry" />
        </mxCell>
        <mxCell id="HutICp3ffsg-i04zgrZf-37" value="Raufer" style="pointerEvents=1;shadow=0;dashed=0;html=1;strokeColor=none;fillColor=#505050;labelPosition=center;verticalLabelPosition=bottom;verticalAlign=top;outlineConnect=0;align=center;shape=mxgraph.office.users.user;fontSize=21;fontColor=#000000;" vertex="1" parent="1">
          <mxGeometry x="355" y="-470" width="40" height="40" as="geometry" />
        </mxCell>
        <mxCell id="HutICp3ffsg-i04zgrZf-8" value="Pool" style="pointerEvents=1;shadow=0;dashed=0;html=1;strokeColor=none;fillColor=#505050;labelPosition=center;verticalLabelPosition=bottom;verticalAlign=top;outlineConnect=0;align=center;shape=mxgraph.office.users.users;fontSize=21;fontColor=#000000;" vertex="1" parent="1">
          <mxGeometry x="650" y="-470" width="46" height="50" as="geometry" />
        </mxCell>
        <mxCell id="HutICp3ffsg-i04zgrZf-45" style="edgeStyle=orthogonalEdgeStyle;rounded=0;orthogonalLoop=1;jettySize=auto;html=1;exitX=0;exitY=0;exitDx=10;exitDy=0;exitPerimeter=0;entryX=0;entryY=0;entryDx=30;entryDy=0;entryPerimeter=0;fontSize=21;fontColor=#FFD966;" edge="1" parent="1" source="HutICp3ffsg-i04zgrZf-25" target="HutICp3ffsg-i04zgrZf-25">
          <mxGeometry relative="1" as="geometry" />
        </mxCell>
        <mxCell id="HutICp3ffsg-i04zgrZf-50" value="" style="html=1;verticalLabelPosition=bottom;labelBackgroundColor=#ffffff;verticalAlign=top;shadow=0;dashed=0;strokeWidth=2;shape=mxgraph.ios7.misc.star;strokeColor=none;fontSize=21;fontColor=#FFD966;fillColor=#B39847;" vertex="1" parent="1">
          <mxGeometry x="400" y="-480" width="22" height="22" as="geometry" />
        </mxCell>
        <mxCell id="HutICp3ffsg-i04zgrZf-51" value="Varun" style="pointerEvents=1;shadow=0;dashed=0;html=1;strokeColor=none;fillColor=#505050;labelPosition=center;verticalLabelPosition=bottom;verticalAlign=top;outlineConnect=0;align=center;shape=mxgraph.office.users.user;fontSize=21;fontColor=#000000;" vertex="1" parent="1">
          <mxGeometry x="-120" y="-320" width="40" height="40" as="geometry" />
        </mxCell>
        <mxCell id="HutICp3ffsg-i04zgrZf-52" value="Kushal" style="pointerEvents=1;shadow=0;dashed=0;html=1;strokeColor=none;fillColor=#505050;labelPosition=center;verticalLabelPosition=bottom;verticalAlign=top;outlineConnect=0;align=center;shape=mxgraph.office.users.user;fontSize=21;fontColor=#000000;" vertex="1" parent="1">
          <mxGeometry x="350" y="-320" width="40" height="40" as="geometry" />
        </mxCell>
        <mxCell id="HutICp3ffsg-i04zgrZf-53" value="Pool" style="pointerEvents=1;shadow=0;dashed=0;html=1;strokeColor=none;fillColor=#505050;labelPosition=center;verticalLabelPosition=bottom;verticalAlign=top;outlineConnect=0;align=center;shape=mxgraph.office.users.users;fontSize=21;fontColor=#000000;" vertex="1" parent="1">
          <mxGeometry x="650" y="-170" width="46" height="50" as="geometry" />
        </mxCell>
        <mxCell id="HutICp3ffsg-i04zgrZf-58" value="&lt;ul style=&quot;font-size: 22px&quot;&gt;&lt;li style=&quot;font-size: 22px&quot;&gt;Dev1&lt;/li&gt;&lt;li style=&quot;font-size: 22px&quot;&gt;Dev2&lt;/li&gt;&lt;li style=&quot;font-size: 22px&quot;&gt;Dev3&lt;/li&gt;&lt;/ul&gt;" style="shape=callout;whiteSpace=wrap;html=1;perimeter=calloutPerimeter;rounded=0;shadow=0;labelBackgroundColor=none;sketch=1;fillColor=none;fontSize=22;fontColor=#000000;opacity=50;position2=0;size=30;position=0.17;align=left;" vertex="1" parent="1">
          <mxGeometry x="696" y="-630" width="194" height="170" as="geometry" />
        </mxCell>
        <mxCell id="HutICp3ffsg-i04zgrZf-59" value="&lt;ul style=&quot;font-size: 22px&quot;&gt;&lt;li style=&quot;font-size: 22px&quot;&gt;Dev1&lt;/li&gt;&lt;li style=&quot;font-size: 22px&quot;&gt;Dev2&lt;/li&gt;&lt;li style=&quot;font-size: 22px&quot;&gt;Dev3&lt;/li&gt;&lt;/ul&gt;" style="shape=callout;whiteSpace=wrap;html=1;perimeter=calloutPerimeter;rounded=0;shadow=0;labelBackgroundColor=none;sketch=1;fillColor=none;fontSize=22;fontColor=#000000;opacity=50;position2=0;size=40;position=0;align=left;base=24;" vertex="1" parent="1">
          <mxGeometry x="706" y="-330" width="194" height="170" as="geometry" />
        </mxCell>
        <mxCell id="HutICp3ffsg-i04zgrZf-60" value="" style="shape=image;html=1;verticalAlign=top;verticalLabelPosition=bottom;labelBackgroundColor=#ffffff;imageAspect=0;aspect=fixed;image=https://cdn3.iconfinder.com/data/icons/letters-and-numbers-1/32/letter_L_red-128.png;rounded=0;shadow=0;sketch=1;fillColor=none;fontSize=22;fontColor=#000000;opacity=50;align=left;" vertex="1" parent="1">
          <mxGeometry x="-530" y="-480" width="24" height="24" as="geometry" />
        </mxCell>
        <mxCell id="HutICp3ffsg-i04zgrZf-64" value="Carlos" style="pointerEvents=1;shadow=0;dashed=0;html=1;strokeColor=none;fillColor=#505050;labelPosition=center;verticalLabelPosition=bottom;verticalAlign=top;outlineConnect=0;align=center;shape=mxgraph.office.users.user;fontSize=21;fontColor=#000000;" vertex="1" parent="1">
          <mxGeometry x="-570" y="-465" width="40" height="40" as="geometry" />
        </mxCell>
        <mxCell id="HutICp3ffsg-i04zgrZf-66" value="" style="group" vertex="1" connectable="0" parent="1">
          <mxGeometry x="-570" y="-330" width="64" height="50" as="geometry" />
        </mxCell>
        <mxCell id="HutICp3ffsg-i04zgrZf-61" value="J-L" style="pointerEvents=1;shadow=0;dashed=0;html=1;strokeColor=none;fillColor=#505050;labelPosition=center;verticalLabelPosition=bottom;verticalAlign=top;outlineConnect=0;align=center;shape=mxgraph.office.users.user;fontSize=21;fontColor=#000000;" vertex="1" parent="HutICp3ffsg-i04zgrZf-66">
          <mxGeometry y="10" width="40" height="40" as="geometry" />
        </mxCell>
        <mxCell id="HutICp3ffsg-i04zgrZf-63" value="" style="shape=image;html=1;verticalAlign=top;verticalLabelPosition=bottom;labelBackgroundColor=#ffffff;imageAspect=0;aspect=fixed;image=https://cdn3.iconfinder.com/data/icons/letters-and-numbers-1/32/letter_L_red-128.png;rounded=0;shadow=0;sketch=1;fillColor=none;fontSize=22;fontColor=#000000;opacity=50;align=left;" vertex="1" parent="HutICp3ffsg-i04zgrZf-66">
          <mxGeometry x="40" width="24" height="24" as="geometry" />
        </mxCell>
        <mxCell id="HutICp3ffsg-i04zgrZf-67" value="" style="group" vertex="1" connectable="0" parent="1">
          <mxGeometry x="-570" y="-180" width="64" height="50" as="geometry" />
        </mxCell>
        <mxCell id="HutICp3ffsg-i04zgrZf-68" value="J-L" style="pointerEvents=1;shadow=0;dashed=0;html=1;strokeColor=none;fillColor=#505050;labelPosition=center;verticalLabelPosition=bottom;verticalAlign=top;outlineConnect=0;align=center;shape=mxgraph.office.users.user;fontSize=21;fontColor=#000000;" vertex="1" parent="HutICp3ffsg-i04zgrZf-67">
          <mxGeometry y="10" width="40" height="40" as="geometry" />
        </mxCell>
        <mxCell id="HutICp3ffsg-i04zgrZf-69" value="" style="shape=image;html=1;verticalAlign=top;verticalLabelPosition=bottom;labelBackgroundColor=#ffffff;imageAspect=0;aspect=fixed;image=https://cdn3.iconfinder.com/data/icons/letters-and-numbers-1/32/letter_L_red-128.png;rounded=0;shadow=0;sketch=1;fillColor=none;fontSize=22;fontColor=#000000;opacity=50;align=left;" vertex="1" parent="HutICp3ffsg-i04zgrZf-67">
          <mxGeometry x="40" width="24" height="24" as="geometry" />
        </mxCell>
        <mxCell id="HutICp3ffsg-i04zgrZf-70" value="" style="group" vertex="1" connectable="0" parent="1">
          <mxGeometry x="-570" y="-30" width="64" height="50" as="geometry" />
        </mxCell>
        <mxCell id="HutICp3ffsg-i04zgrZf-71" value="Thomas" style="pointerEvents=1;shadow=0;dashed=0;html=1;strokeColor=none;fillColor=#505050;labelPosition=center;verticalLabelPosition=bottom;verticalAlign=top;outlineConnect=0;align=center;shape=mxgraph.office.users.user;fontSize=21;fontColor=#000000;" vertex="1" parent="HutICp3ffsg-i04zgrZf-70">
          <mxGeometry y="10" width="40" height="40" as="geometry" />
        </mxCell>
        <mxCell id="HutICp3ffsg-i04zgrZf-72" value="" style="shape=image;html=1;verticalAlign=top;verticalLabelPosition=bottom;labelBackgroundColor=#ffffff;imageAspect=0;aspect=fixed;image=https://cdn3.iconfinder.com/data/icons/letters-and-numbers-1/32/letter_L_red-128.png;rounded=0;shadow=0;sketch=1;fillColor=none;fontSize=22;fontColor=#000000;opacity=50;align=left;" vertex="1" parent="HutICp3ffsg-i04zgrZf-70">
          <mxGeometry x="40" width="24" height="24" as="geometry" />
        </mxCell>
        <mxCell id="HutICp3ffsg-i04zgrZf-73" value="" style="group" vertex="1" connectable="0" parent="1">
          <mxGeometry x="-570" y="110" width="64" height="50" as="geometry" />
        </mxCell>
        <mxCell id="HutICp3ffsg-i04zgrZf-74" value="Stefan" style="pointerEvents=1;shadow=0;dashed=0;html=1;strokeColor=none;fillColor=#505050;labelPosition=center;verticalLabelPosition=bottom;verticalAlign=top;outlineConnect=0;align=center;shape=mxgraph.office.users.user;fontSize=21;fontColor=#000000;" vertex="1" parent="HutICp3ffsg-i04zgrZf-73">
          <mxGeometry y="10" width="40" height="40" as="geometry" />
        </mxCell>
        <mxCell id="HutICp3ffsg-i04zgrZf-75" value="" style="shape=image;html=1;verticalAlign=top;verticalLabelPosition=bottom;labelBackgroundColor=#ffffff;imageAspect=0;aspect=fixed;image=https://cdn3.iconfinder.com/data/icons/letters-and-numbers-1/32/letter_L_red-128.png;rounded=0;shadow=0;sketch=1;fillColor=none;fontSize=22;fontColor=#000000;opacity=50;align=left;" vertex="1" parent="HutICp3ffsg-i04zgrZf-73">
          <mxGeometry x="40" width="24" height="24" as="geometry" />
        </mxCell>
        <mxCell id="HutICp3ffsg-i04zgrZf-78" value="Leo" style="pointerEvents=1;shadow=0;dashed=0;html=1;strokeColor=none;fillColor=#505050;labelPosition=center;verticalLabelPosition=bottom;verticalAlign=top;outlineConnect=0;align=center;shape=mxgraph.office.users.user;fontSize=21;fontColor=#000000;" vertex="1" parent="1">
          <mxGeometry x="-125" y="-25" width="40" height="40" as="geometry" />
        </mxCell>
        <mxCell id="HutICp3ffsg-i04zgrZf-79" value="Sebastien" style="pointerEvents=1;shadow=0;dashed=0;html=1;strokeColor=none;fillColor=#505050;labelPosition=center;verticalLabelPosition=bottom;verticalAlign=top;outlineConnect=0;align=center;shape=mxgraph.office.users.user;fontSize=21;fontColor=#000000;" vertex="1" parent="1">
          <mxGeometry x="350" y="-20" width="40" height="40" as="geometry" />
        </mxCell>
        <mxCell id="HutICp3ffsg-i04zgrZf-80" value="Vincent" style="pointerEvents=1;shadow=0;dashed=0;html=1;strokeColor=none;fillColor=#505050;labelPosition=center;verticalLabelPosition=bottom;verticalAlign=top;outlineConnect=0;align=center;shape=mxgraph.office.users.user;fontSize=21;fontColor=#000000;" vertex="1" parent="1">
          <mxGeometry x="650" y="-20" width="40" height="40" as="geometry" />
        </mxCell>
        <mxCell id="HutICp3ffsg-i04zgrZf-81" value="David" style="pointerEvents=1;shadow=0;dashed=0;html=1;strokeColor=none;fillColor=#505050;labelPosition=center;verticalLabelPosition=bottom;verticalAlign=top;outlineConnect=0;align=center;shape=mxgraph.office.users.user;fontSize=21;fontColor=#000000;" vertex="1" parent="1">
          <mxGeometry x="-125" y="120" width="40" height="40" as="geometry" />
        </mxCell>
        <mxCell id="HutICp3ffsg-i04zgrZf-82" value="Stefan" style="pointerEvents=1;shadow=0;dashed=0;html=1;strokeColor=none;fillColor=#505050;labelPosition=center;verticalLabelPosition=bottom;verticalAlign=top;outlineConnect=0;align=center;shape=mxgraph.office.users.user;fontSize=21;fontColor=#000000;sketch=1;" vertex="1" parent="1">
          <mxGeometry x="350" y="120" width="40" height="40" as="geometry" />
        </mxCell>
        <mxCell id="HutICp3ffsg-i04zgrZf-90" value="" style="shape=mxgraph.infographic.parallelogram;dx=5;html=1;strokeColor=none;shadow=0;fontSize=17;fontColor=#FFFFFF;align=center;fontStyle=1;sketch=1;opacity=50;fillColor=#FF66FF;" vertex="1" parent="1">
          <mxGeometry x="-620" y="250" width="140" height="100" as="geometry" />
        </mxCell>
        <mxCell id="HutICp3ffsg-i04zgrZf-91" value="Business Analyst" style="shape=mxgraph.infographic.parallelogram;dx=5;;html=1;strokeColor=#9673a6;shadow=0;fontSize=17;align=left;spacingLeft=10;fontStyle=1;fillColor=#FF99FF;" vertex="1" parent="1">
          <mxGeometry x="-452.5" y="250" width="1172.5" height="100" as="geometry" />
        </mxCell>
        <mxCell id="HutICp3ffsg-i04zgrZf-92" value="" style="group" vertex="1" connectable="0" parent="1">
          <mxGeometry x="-570" y="260" width="64" height="50" as="geometry" />
        </mxCell>
        <mxCell id="HutICp3ffsg-i04zgrZf-93" value="Stefan" style="pointerEvents=1;shadow=0;dashed=0;html=1;strokeColor=none;fillColor=#505050;labelPosition=center;verticalLabelPosition=bottom;verticalAlign=top;outlineConnect=0;align=center;shape=mxgraph.office.users.user;fontSize=21;fontColor=#000000;" vertex="1" parent="HutICp3ffsg-i04zgrZf-92">
          <mxGeometry y="10" width="40" height="40" as="geometry" />
        </mxCell>
        <mxCell id="HutICp3ffsg-i04zgrZf-94" value="" style="shape=image;html=1;verticalAlign=top;verticalLabelPosition=bottom;labelBackgroundColor=#ffffff;imageAspect=0;aspect=fixed;image=https://cdn3.iconfinder.com/data/icons/letters-and-numbers-1/32/letter_L_red-128.png;rounded=0;shadow=0;sketch=1;fillColor=none;fontSize=22;fontColor=#000000;opacity=50;align=left;" vertex="1" parent="HutICp3ffsg-i04zgrZf-92">
          <mxGeometry x="40" width="24" height="24" as="geometry" />
        </mxCell>
        <mxCell id="HutICp3ffsg-i04zgrZf-95" value="David" style="pointerEvents=1;shadow=0;dashed=0;html=1;strokeColor=none;fillColor=#505050;labelPosition=center;verticalLabelPosition=bottom;verticalAlign=top;outlineConnect=0;align=center;shape=mxgraph.office.users.user;fontSize=21;fontColor=#000000;" vertex="1" parent="1">
          <mxGeometry x="-125" y="270" width="40" height="40" as="geometry" />
        </mxCell>
        <mxCell id="HutICp3ffsg-i04zgrZf-96" value="Stefan" style="pointerEvents=1;shadow=0;dashed=0;html=1;strokeColor=none;fillColor=#505050;labelPosition=center;verticalLabelPosition=bottom;verticalAlign=top;outlineConnect=0;align=center;shape=mxgraph.office.users.user;fontSize=21;fontColor=#000000;sketch=1;" vertex="1" parent="1">
          <mxGeometry x="350" y="270" width="40" height="40" as="geometry" />
        </mxCell>
        <mxCell id="HutICp3ffsg-i04zgrZf-98" value="" style="rounded=1;whiteSpace=wrap;html=1;shadow=0;labelBackgroundColor=none;sketch=0;fillColor=#f5f5f5;fontSize=22;fontColor=#333333;opacity=10;align=left;glass=1;strokeWidth=3;strokeColor=#3B3B3B;" vertex="1" parent="1">
          <mxGeometry x="-630" y="-610" width="160" height="1240" as="geometry" />
        </mxCell>
        <mxCell id="HutICp3ffsg-i04zgrZf-100" value="Chapters" style="text;html=1;strokeColor=none;fillColor=none;align=center;verticalAlign=middle;whiteSpace=wrap;rounded=0;shadow=0;glass=1;labelBackgroundColor=none;sketch=0;fontSize=28;fontColor=#000000;opacity=20;rotation=0;" vertex="1" parent="1">
          <mxGeometry x="-570" y="-550" width="40" height="20" as="geometry" />
        </mxCell>
      </root>
    </mxGraphModel>
  </diagram>
</mxfile>
